<?xml version="1.0" encoding="utf-8"?>
<!-- Svg Vector Icons : http://www.onlinewebfonts.com/icon -->
<!DOCTYPE svg PUBLIC "-//W3C//DTD SVG 1.1//EN" "http://www.w3.org/Graphics/SVG/1.1/DTD/svg11.dtd">
<svg version="1.1" xmlns="http://www.w3.org/2000/svg" xmlns:xlink="http://www.w3.org/1999/xlink" x="0px" y="0px" viewBox="0 0 1000 1000" enable-background="new 0 0 1000 1000" xml:space="preserve">
<metadata> Svg Vector Icons : http://www.onlinewebfonts.com/icon </metadata>
<g><g><g><path d="M49.5,788.2c76.6,87.5,91.4,158.3,91.4,158.3c105.3-13.5,157.5,46.6,157.5,46.6c38-31.2,79.5-10.6,79.5-10.6c68.3-25.5,69.7-57.9,84.5-111c14.8-53.2,45.5-34.6,24.4-56.7c-21-22.1-18.1-118.1,81.4-147.6c99.5-29.5,119.6-130.3,92.1-108c-27.5,22.3-93.3,60.6-128,10.8C497.6,520.2,606,415,606,415l-0.5-0.4L788,221.5c25-27.6,80.9-23.2,80.9-23.2C933.8,44.2,1000,40.6,988.7,29.9c-11.2-10.7-33.7-10.7-67.2-11.2c-33.4-0.4-36.3-11.9-36.3-11.9c-30,58-136.1,109-136.1,109c25.2,31.5,1.6,61.6,1.6,61.6L558.1,381.2c-75.6,37-102.3,23.9-76.4-61.1c26.9-88,105-110.5,86.5-117.6c-18.5-7.1-56.4-13.7-91.2,16.3c-34.8,30-60.8,24.2-60.8,24.2c3.7,102.3-69.5,108.5-69.5,108.5s45.5,49.5-31.7,110.8c-77.1,61.3-125.5-16.2-129.2,5.4c-3.8,21.7-10.3,17.5-89,60.5C18.1,571.2-27.1,700.7,49.5,788.2z"/></g></g><g></g><g></g><g></g><g></g><g></g><g></g><g></g><g></g><g></g><g></g><g></g><g></g><g></g><g></g><g></g></g>
</svg>